{"title":"Big Brother Canada S02E03 WEB-DL x264-DARKCROWN","uid":9738495,"size":268530021,"categoryP":"video","categoryS":"tv_shows","magnet":"?xt=urn:btih:aea823d70edc999f357d2a5adc5985ab5a189933&amp;dn=Big+Brother+Canada+S02E03+WEB-DL+x264-DARKCROWN&amp;tr=udp%3A%2F%2Ftracker.openbittorrent.com%3A80&amp;tr=udp%3A%2F%2Fopen.demonii.com%3A1337&amp;tr=udp%3A%2F%2Ftracker.coppersurfer.tk%3A6969&amp;tr=udp%3A%2F%2Fexodus.desync.com%3A6969","seeders":1,"leechers":0,"uploader":"theacidwiz","files":1,"time":1394472383,"description":"There's a new HOH in town, find out who's won the power in this fresh from the farm challenge!\n\nDownloaded from slice.ca as is - no editing.\n\nGeneral\nComplete name : Big.Brother.Canada.S02E03.WEB-DL.x264-DARKCROWN.mp4\nFormat : MPEG-4\nFormat profile : Base Media / Version 2\nCodec ID : mp42\nFile size : 256 MiB\nDuration : 44mn 20s\nOverall bit rate mode : Variable\nOverall bit rate : 807 Kbps\nEncoded date : UTC 2014-03-10 14:12:23\nTagged date : UTC 2014-03-10 14:12:23\n\nVideo\nID : 1\nFormat : AVC\nFormat/Info : Advanced Video Codec\nFormat profile : &lt;a class=&quot;__cf_email__&quot; href=&quot;/cdn-cgi/l/email-protection&quot; data-cfemail=&quot;e2af838b8ca2aed1ccd3&quot;&gt;[email&amp;#160;protected]&lt;/a&gt;&lt;script cf-hash='f9e31' type=&quot;text/javascript&quot;&gt;\n/* &lt;![CDATA[ */!function(){try{var t=&quot;currentScript&quot;in document?document.currentScript:function(){for(var t=document.getElementsByTagName(&quot;script&quot;),e=t.length;e--;)if(t[e].getAttribute(&quot;cf-hash&quot;))return t[e]}();if(t&amp;&amp;t.previousSibling){var e,r,n,i,c=t.previousSibling,a=c.getAttribute(&quot;data-cfemail&quot;);if(a){for(e=&quot;&quot;,r=parseInt(a.substr(0,2),16),n=2;a.length-n;n+=2)i=parseInt(a.substr(n,2),16)^r,e+=String.fromCharCode(i);e=document.createTextNode(e),c.parentNode.replaceChild(e,c)}}}catch(u){}}();/* ]]&gt; */&lt;/script&gt;\nFormat settings, CABAC : Yes\nFormat settings, ReFrames : 4 frames\nCodec ID : avc1\nCodec ID/Info : Advanced Video Coding\nDuration : 44mn 20s\nBit rate mode : Variable\nBit rate : 757 Kbps\nMaximum bit rate : 840 Kbps\nWidth : 960 pixels\nHeight : 544 pixels\nDisplay aspect ratio : 16:9\nFrame rate mode : Constant\nFrame rate : 29.970 fps\nColor space : YUV\nChroma subsampling : 4:2:0\nBit depth : 8 bits\nScan type : Progressive\nBits/(Pixel*Frame) : 0.048\nStream size : 240 MiB (94%)\nLanguage : English\nEncoded date : UTC 2014-03-10 14:12:23\nTagged date : UTC 2014-03-10 14:12:23\n\nAudio\nID : 2\nFormat : AAC\nFormat/Info : Advanced Audio Codec\nFormat profile : LC\nCodec ID : 40\nDuration : 44mn 20s\nBit rate mode : Variable\nBit rate : 45.6 Kbps\nMaximum bit rate : 529 Kbps\nChannel(s) : 2 channels\nChannel positions : Front: L R\nSampling rate : 44.1 KHz\nCompression mode : Lossy\nStream size : 14.5 MiB (6%)\nLanguage : English\nEncoded date : UTC 2014-03-10 14:12:23\nTagged date : UTC 2014-03-10 14:12:23\nmdhd_Duration : 2660798","torrent":{"xt":"urn:btih:aea823d70edc999f357d2a5adc5985ab5a189933","amp;dn":"Big+Brother+Canada+S02E03+WEB-DL+x264-DARKCROWN","amp;tr":["udp%3A%2F%2Ftracker.openbittorrent.com%3A80","udp%3A%2F%2Fopen.demonii.com%3A1337","udp%3A%2F%2Ftracker.coppersurfer.tk%3A6969","udp%3A%2F%2Fexodus.desync.com%3A6969"],"infoHash":"aea823d70edc999f357d2a5adc5985ab5a189933","infoHashBuffer":{"type":"Buffer","data":[174,168,35,215,14,220,153,159,53,125,42,90,220,89,133,171,90,24,153,51]},"announce":[],"urlList":[]}}